<svg width="600" height="220" xmlns="http://www.w3.org/2000/svg" preserveAspectRatio="xMidYMid meet" version="1.0">

 <g>
  <title>Layer 1</title>
  <g id="svg_1" fill="#000000" transform="translate(0 701) scale(0.1 -0.1)">
   <path id="svg_2" d="m1047,6771.8833c-72,-42 -58,-226 18,-245c59,-15 105,41 105,126c0,96 -61,155 -123,119z"/>
   <path id="svg_3" d="m1265,6756.8833c-65,-70 -30,-234 50,-234c16,0 38,12 56,29c27,27 29,35 29,99c0,61 -3,75 -26,101c-33,40 -75,42 -109,5z"/>
   <path id="svg_4" d="m867,6580.8833c-22,-17 -47,-80 -47,-117c0,-42 28,-109 51,-121c72,-39 144,56 120,161c-17,73 -78,111 -124,77z"/>
   <path id="svg_5" d="m1443,6568.8833c-24,-21 -28,-32 -31,-92c-3,-78 9,-110 50,-133c79,-45 149,85 104,194c-25,58 -76,71 -123,31z"/>
   <path id="svg_6" d="m1135,6473.8833c-42,-25 -143,-134 -155,-166c-23,-62 -8,-140 37,-187c34,-36 80,-44 138,-25c41,14 49,14 90,0c76,-25 136,0 174,74c14,27 14,103 1,138c-13,33 -125,152 -162,171c-37,19 -87,17 -123,-5z"/>
   <path id="svg_7" d="m2635,5855.8833c-41,-9 -91,-12 -162,-8c-96,5 -103,4 -122,-16c-25,-27 -33,-67 -29,-134c3,-48 4,-50 33,-49c17,0 49,4 71,9c41,7 42,6 49,-23c6,-27 -9,-207 -21,-257c-3,-12 4,-32 16,-48c19,-23 29,-27 76,-27c55,0 116,18 128,39c4,6 0,46 -9,89c-9,43 -15,111 -13,151l3,74l39,14c62,21 76,39 76,95c0,63 -23,108 -53,107c-12,-1 -49,-8 -82,-16z"/>
   <path id="svg_8" d="m3680,5861.8833c-50,-9 -101,-57 -122,-116c-7,-18 -15,-33 -18,-33c-3,0 -20,29 -38,65c-38,77 -63,92 -122,74c-44,-13 -110,-64 -110,-84c0,-8 29,-56 64,-109c43,-62 63,-101 60,-114c-3,-10 -27,-45 -52,-76c-26,-32 -56,-69 -66,-82c-19,-23 -19,-24 0,-45c23,-27 90,-58 123,-59c24,0 100,68 132,120l16,25l16,-32c32,-60 67,-93 100,-93c55,0 136,62 137,104c0,10 -25,45 -55,78c-84,91 -84,100 11,255c30,48 54,95 54,104c0,30 -41,35 -130,18z"/>
   <path id="svg_9" d="m4967,5858.8833c-102,-28 -122,-64 -138,-242c-11,-129 0,-261 26,-300c15,-24 22,-26 64,-22c25,3 60,11 76,19c29,14 30,17 27,72c-3,52 -1,57 18,57c16,0 28,-15 50,-64c16,-35 36,-66 45,-70c55,-21 167,19 173,62c2,16 -4,29 -17,39c-12,8 -30,31 -40,52c-11,20 -27,43 -36,51c-14,12 -13,16 13,44c43,45 52,68 52,134c0,74 -26,118 -90,149c-58,29 -159,37 -223,19zm111,-158c7,-7 12,-20 12,-30c0,-22 -34,-58 -55,-58c-23,0 -30,46 -11,75c18,27 35,32 54,13z"/>
   <path id="svg_10" d="m5690,5859.8833c-14,-6 -83,-12 -155,-12c-71,-1 -136,-3 -142,-4c-35,-4 -66,-150 -40,-185c13,-17 18,-18 65,-6c85,20 86,18 78,-118c-4,-64 -9,-133 -12,-154c-8,-52 20,-78 86,-78c55,0 126,24 134,45c3,8 1,29 -5,47c-17,58 -30,228 -19,249c6,10 29,24 51,31c56,16 73,45 66,108c-3,27 -11,59 -17,70c-12,22 -50,26 -90,7z"/>
   <path id="svg_11" d="m1715,5848.8833c-22,-7 -54,-20 -71,-29l-32,-16l5,-103c5,-98 -4,-162 -26,-197c-8,-13 -12,-13 -26,-1c-15,12 -16,34 -14,164c2,83 0,157 -4,164c-5,6 -17,12 -27,12c-33,0 -127,-39 -154,-65c-22,-21 -26,-32 -26,-83c0,-158 97,-377 176,-396c37,-10 126,11 166,37c68,46 135,230 145,397c8,130 -10,148 -112,116z"/>
   <path id="svg_12" d="m1941,5849.8833c-47,-16 -52,-38 -57,-242c-5,-203 7,-282 46,-302c61,-31 316,2 348,45c8,11 12,40 10,82c-3,62 -4,65 -28,64c-14,-1 -54,-9 -88,-18c-68,-19 -112,-15 -112,9c0,22 39,38 82,32c47,-6 68,17 68,79c0,54 -15,65 -86,62c-55,-3 -59,-1 -62,20c-4,25 -2,26 108,26l75,1l3,48c3,41 -1,51 -27,77c-29,30 -31,30 -138,29c-59,0 -123,-5 -142,-12z"/>
   <path id="svg_13" d="m2882,5851.8833c-21,-6 -37,-19 -44,-37c-14,-33 -23,-317 -13,-407c4,-39 14,-74 25,-87c17,-21 26,-23 127,-23c124,1 213,22 238,57c15,22 21,102 9,132c-8,20 -31,20 -75,2c-19,-8 -58,-17 -86,-21c-45,-6 -54,-4 -60,11c-10,26 25,46 77,42c39,-3 46,0 57,22c16,31 17,75 2,102c-10,18 -17,19 -74,13c-54,-5 -63,-4 -69,11c-12,30 12,39 102,39l87,0l0,53c-1,40 -6,57 -23,75c-20,20 -33,22 -135,24c-61,1 -127,-2 -145,-8z"/>
   <path id="svg_14" d="m3940,5844.8833c-41,-13 -58,-25 -68,-45c-31,-65 -24,-364 11,-436c25,-54 164,-87 194,-45c7,10 11,25 8,34c-4,8 -9,36 -12,62l-6,47l31,-8c64,-19 149,19 197,88c26,37 30,51 30,111c0,60 -4,74 -30,111c-45,64 -107,92 -214,96c-62,2 -101,-2 -141,-15zm174,-148c9,-8 16,-22 16,-29c0,-20 -28,-45 -51,-45c-15,0 -19,7 -19,39c0,35 8,47 32,50c4,1 14,-6 22,-15z"/>
   <path id="svg_15" d="m4434,5848.8833c-40,-18 -43,-28 -56,-168c-8,-85 -8,-148 0,-226c13,-128 17,-141 49,-153c65,-25 287,2 334,40c29,23 38,116 16,146c-15,19 -16,19 -64,2c-26,-9 -70,-18 -98,-19c-45,-3 -50,-1 -53,19c-4,26 30,39 76,30c15,-3 34,-1 43,4c21,11 32,80 19,114c-10,27 -11,27 -75,20c-56,-6 -66,-4 -72,11c-12,32 24,45 99,38c48,-5 72,-3 83,6c34,28 6,123 -41,140c-38,15 -224,12 -260,-4z"/>
   <path id="svg_16" d="m387,5772.8833c-33,-26 -52,-104 -38,-155c32,-118 148,-111 166,10c18,118 -55,202 -128,145z"/>
   <path id="svg_17" d="m627,5781.8833c-46,-27 -62,-148 -28,-206c54,-88 151,-34 151,85c0,101 -59,158 -123,121z"/>
   <path id="svg_18" d="m211,5581.8833c-42,-40 -54,-118 -27,-184c44,-104 156,-53 156,72c0,108 -69,168 -129,112z"/>
   <path id="svg_19" d="m787,5572.8833c-80,-95 -6,-273 92,-220c23,12 51,79 51,121c0,38 -25,98 -48,115c-30,23 -68,17 -95,-16z"/>
   <path id="svg_20" d="m500,5491.8833c-31,-12 -146,-124 -166,-161c-19,-36 -18,-122 2,-164c24,-51 75,-78 127,-69c40,7 80,8 189,2c53,-2 90,24 114,80c33,77 11,146 -73,235c-78,82 -129,102 -193,77z"/>
  </g>
 </g>
</svg>